<mxfile host="Electron" agent="Mozilla/5.0 (Windows NT 10.0; Win64; x64) AppleWebKit/537.36 (KHTML, like Gecko) draw.io/24.7.5 Chrome/126.0.6478.183 Electron/31.3.0 Safari/537.36" version="24.7.5" pages="2">
  <diagram id="6a731a19-8d31-9384-78a2-239565b7b9f0" name="アイデア整理">
    <mxGraphModel dx="1299" dy="961" grid="1" gridSize="10" guides="1" tooltips="1" connect="1" arrows="1" fold="1" page="1" pageScale="1" pageWidth="1169" pageHeight="827" background="none" math="0" shadow="0">
      <root>
        <object label="" curved="1" id="0">
          <mxCell />
        </object>
        <mxCell id="1" parent="0" />
        <mxCell id="2QGjMS1GRSRLFprrYfII-1818" value="" style="edgeStyle=orthogonalEdgeStyle;rounded=1;orthogonalLoop=1;jettySize=auto;html=1;strokeColor=default;align=center;verticalAlign=middle;fontFamily=Helvetica;fontSize=11;fontColor=default;labelBackgroundColor=default;endArrow=none;endFill=0;entryX=0;entryY=0.5;entryDx=0;entryDy=0;" parent="1" source="1749" target="2QGjMS1GRSRLFprrYfII-1858" edge="1">
          <mxGeometry relative="1" as="geometry">
            <Array as="points">
              <mxPoint x="240" y="275" />
              <mxPoint x="240" y="580" />
            </Array>
          </mxGeometry>
        </mxCell>
        <mxCell id="2QGjMS1GRSRLFprrYfII-1846" style="edgeStyle=orthogonalEdgeStyle;rounded=1;orthogonalLoop=1;jettySize=auto;html=1;entryX=0;entryY=0.5;entryDx=0;entryDy=0;strokeColor=default;align=center;verticalAlign=middle;fontFamily=Helvetica;fontSize=11;fontColor=default;labelBackgroundColor=default;endArrow=none;endFill=0;" parent="1" source="1749" target="2QGjMS1GRSRLFprrYfII-1842" edge="1">
          <mxGeometry relative="1" as="geometry" />
        </mxCell>
        <mxCell id="1749" value="アプリ名&lt;br&gt;CheckList Maker" style="rounded=1;whiteSpace=wrap;html=1;shadow=0;labelBackgroundColor=none;strokeColor=none;strokeWidth=3;fillColor=#2F5B7C;fontFamily=Helvetica;fontSize=16;fontColor=#FFFFFF;align=center;fontStyle=1;spacing=5;arcSize=7;perimeterSpacing=2;" parent="1" vertex="1">
          <mxGeometry x="40" y="240" width="160" height="70" as="geometry" />
        </mxCell>
        <mxCell id="2QGjMS1GRSRLFprrYfII-1822" value="" style="edgeStyle=orthogonalEdgeStyle;rounded=1;orthogonalLoop=1;jettySize=auto;html=1;strokeColor=default;align=center;verticalAlign=middle;fontFamily=Helvetica;fontSize=11;fontColor=default;labelBackgroundColor=default;endArrow=none;endFill=0;fontStyle=1;entryX=-0.003;entryY=0.577;entryDx=0;entryDy=0;entryPerimeter=0;exitX=1;exitY=0.5;exitDx=0;exitDy=0;" parent="1" source="2QGjMS1GRSRLFprrYfII-1817" target="2QGjMS1GRSRLFprrYfII-1821" edge="1">
          <mxGeometry relative="1" as="geometry">
            <mxPoint x="540" y="590" as="sourcePoint" />
          </mxGeometry>
        </mxCell>
        <mxCell id="2QGjMS1GRSRLFprrYfII-1827" style="edgeStyle=orthogonalEdgeStyle;rounded=1;orthogonalLoop=1;jettySize=auto;html=1;entryX=0;entryY=0.5;entryDx=0;entryDy=0;strokeColor=default;align=center;verticalAlign=middle;fontFamily=Helvetica;fontSize=11;fontColor=default;labelBackgroundColor=default;endArrow=none;endFill=0;" parent="1" source="2QGjMS1GRSRLFprrYfII-1817" target="2QGjMS1GRSRLFprrYfII-1826" edge="1">
          <mxGeometry relative="1" as="geometry" />
        </mxCell>
        <mxCell id="2QGjMS1GRSRLFprrYfII-1832" style="edgeStyle=orthogonalEdgeStyle;rounded=1;orthogonalLoop=1;jettySize=auto;html=1;entryX=0;entryY=0.5;entryDx=0;entryDy=0;strokeColor=default;align=center;verticalAlign=middle;fontFamily=Helvetica;fontSize=11;fontColor=default;labelBackgroundColor=default;endArrow=none;endFill=0;" parent="1" source="2QGjMS1GRSRLFprrYfII-1817" target="2QGjMS1GRSRLFprrYfII-1828" edge="1">
          <mxGeometry relative="1" as="geometry" />
        </mxCell>
        <mxCell id="2QGjMS1GRSRLFprrYfII-1841" style="edgeStyle=orthogonalEdgeStyle;rounded=1;orthogonalLoop=1;jettySize=auto;html=1;entryX=0;entryY=0.5;entryDx=0;entryDy=0;strokeColor=default;align=center;verticalAlign=middle;fontFamily=Helvetica;fontSize=11;fontColor=default;labelBackgroundColor=default;endArrow=none;endFill=0;" parent="1" source="2QGjMS1GRSRLFprrYfII-1817" target="2QGjMS1GRSRLFprrYfII-1834" edge="1">
          <mxGeometry relative="1" as="geometry" />
        </mxCell>
        <mxCell id="2QGjMS1GRSRLFprrYfII-1891" style="edgeStyle=orthogonalEdgeStyle;rounded=1;orthogonalLoop=1;jettySize=auto;html=1;entryX=0;entryY=0.5;entryDx=0;entryDy=0;strokeColor=default;align=center;verticalAlign=middle;fontFamily=Helvetica;fontSize=11;fontColor=default;labelBackgroundColor=default;endArrow=none;endFill=0;" parent="1" source="2QGjMS1GRSRLFprrYfII-1817" target="2QGjMS1GRSRLFprrYfII-1890" edge="1">
          <mxGeometry relative="1" as="geometry" />
        </mxCell>
        <mxCell id="2QGjMS1GRSRLFprrYfII-1893" style="edgeStyle=orthogonalEdgeStyle;rounded=1;orthogonalLoop=1;jettySize=auto;html=1;entryX=0;entryY=0.5;entryDx=0;entryDy=0;strokeColor=default;align=center;verticalAlign=middle;fontFamily=Helvetica;fontSize=11;fontColor=default;labelBackgroundColor=default;endArrow=none;endFill=0;" parent="1" source="2QGjMS1GRSRLFprrYfII-1817" target="2QGjMS1GRSRLFprrYfII-1892" edge="1">
          <mxGeometry relative="1" as="geometry" />
        </mxCell>
        <mxCell id="2QGjMS1GRSRLFprrYfII-1895" style="edgeStyle=orthogonalEdgeStyle;rounded=1;orthogonalLoop=1;jettySize=auto;html=1;entryX=0;entryY=0.5;entryDx=0;entryDy=0;strokeColor=default;align=center;verticalAlign=middle;fontFamily=Helvetica;fontSize=11;fontColor=default;labelBackgroundColor=default;endArrow=none;endFill=0;" parent="1" source="2QGjMS1GRSRLFprrYfII-1817" target="2QGjMS1GRSRLFprrYfII-1894" edge="1">
          <mxGeometry relative="1" as="geometry" />
        </mxCell>
        <mxCell id="eihNs3FUf2MRqZwYtpPU-1750" style="edgeStyle=orthogonalEdgeStyle;rounded=0;orthogonalLoop=1;jettySize=auto;html=1;entryX=0;entryY=0.5;entryDx=0;entryDy=0;" parent="1" source="2QGjMS1GRSRLFprrYfII-1817" target="eihNs3FUf2MRqZwYtpPU-1749" edge="1">
          <mxGeometry relative="1" as="geometry" />
        </mxCell>
        <mxCell id="2QGjMS1GRSRLFprrYfII-1817" value="主機能" style="whiteSpace=wrap;html=1;fontSize=14;fillColor=#2F5B7C;strokeColor=none;fontColor=#FFFFFF;rounded=1;shadow=0;labelBackgroundColor=none;strokeWidth=3;fontStyle=0;spacing=5;arcSize=7;align=center;" parent="1" vertex="1">
          <mxGeometry x="440" y="479.5" width="60" height="40" as="geometry" />
        </mxCell>
        <mxCell id="2QGjMS1GRSRLFprrYfII-1867" style="edgeStyle=orthogonalEdgeStyle;rounded=1;orthogonalLoop=1;jettySize=auto;html=1;entryX=0;entryY=0.5;entryDx=0;entryDy=0;strokeColor=default;align=center;verticalAlign=middle;fontFamily=Helvetica;fontSize=11;fontColor=default;labelBackgroundColor=default;endArrow=none;endFill=0;" parent="1" source="2QGjMS1GRSRLFprrYfII-1821" target="2QGjMS1GRSRLFprrYfII-1864" edge="1">
          <mxGeometry relative="1" as="geometry" />
        </mxCell>
        <mxCell id="2QGjMS1GRSRLFprrYfII-1869" style="edgeStyle=orthogonalEdgeStyle;rounded=1;orthogonalLoop=1;jettySize=auto;html=1;entryX=0;entryY=0.5;entryDx=0;entryDy=0;strokeColor=default;align=center;verticalAlign=middle;fontFamily=Helvetica;fontSize=11;fontColor=default;labelBackgroundColor=default;endArrow=none;endFill=0;" parent="1" source="2QGjMS1GRSRLFprrYfII-1821" target="2QGjMS1GRSRLFprrYfII-1868" edge="1">
          <mxGeometry relative="1" as="geometry" />
        </mxCell>
        <UserObject label="カメラで撮影する" link="https://learn.microsoft.com/ja-jp/dotnet/maui/platform-integration/device-media/picker?view=net-maui-8.0&amp;tabs=android" id="2QGjMS1GRSRLFprrYfII-1821">
          <mxCell style="whiteSpace=wrap;html=1;fontSize=11;fillColor=#647687;strokeColor=#314354;fontColor=#ffffff;rounded=1;shadow=0;labelBackgroundColor=none;strokeWidth=1;fontStyle=0;spacing=5;arcSize=7;align=left;" parent="1" vertex="1">
            <mxGeometry x="600" y="340" width="200" height="30" as="geometry" />
          </mxCell>
        </UserObject>
        <mxCell id="2QGjMS1GRSRLFprrYfII-1873" style="edgeStyle=orthogonalEdgeStyle;rounded=1;orthogonalLoop=1;jettySize=auto;html=1;strokeColor=default;align=center;verticalAlign=middle;fontFamily=Helvetica;fontSize=11;fontColor=default;labelBackgroundColor=default;endArrow=none;endFill=0;" parent="1" source="2QGjMS1GRSRLFprrYfII-1826" target="2QGjMS1GRSRLFprrYfII-1872" edge="1">
          <mxGeometry relative="1" as="geometry" />
        </mxCell>
        <mxCell id="2QGjMS1GRSRLFprrYfII-1826" value="テキストをチェックリストに変換する" style="whiteSpace=wrap;html=1;fontSize=11;fillColor=#647687;strokeColor=#314354;fontColor=#ffffff;rounded=1;shadow=0;labelBackgroundColor=none;strokeWidth=1;fontStyle=0;spacing=5;arcSize=7;align=left;" parent="1" vertex="1">
          <mxGeometry x="600" y="489.5" width="200" height="30" as="geometry" />
        </mxCell>
        <mxCell id="2QGjMS1GRSRLFprrYfII-1875" style="edgeStyle=orthogonalEdgeStyle;rounded=1;orthogonalLoop=1;jettySize=auto;html=1;entryX=0;entryY=0.5;entryDx=0;entryDy=0;strokeColor=default;align=center;verticalAlign=middle;fontFamily=Helvetica;fontSize=11;fontColor=default;labelBackgroundColor=default;endArrow=none;endFill=0;" parent="1" source="2QGjMS1GRSRLFprrYfII-1828" target="2QGjMS1GRSRLFprrYfII-1874" edge="1">
          <mxGeometry relative="1" as="geometry" />
        </mxCell>
        <mxCell id="2QGjMS1GRSRLFprrYfII-1828" value="チェックのオン・オフをする" style="whiteSpace=wrap;html=1;fontSize=11;fillColor=#647687;strokeColor=#314354;fontColor=#ffffff;rounded=1;shadow=0;labelBackgroundColor=none;strokeWidth=1;fontStyle=0;spacing=5;arcSize=7;align=left;" parent="1" vertex="1">
          <mxGeometry x="600" y="538.5" width="200" height="30" as="geometry" />
        </mxCell>
        <mxCell id="2QGjMS1GRSRLFprrYfII-1833" value="" style="edgeStyle=orthogonalEdgeStyle;rounded=1;orthogonalLoop=1;jettySize=auto;html=1;strokeColor=default;align=center;verticalAlign=middle;fontFamily=Helvetica;fontSize=11;fontColor=default;labelBackgroundColor=default;endArrow=none;endFill=0;fontStyle=1;entryX=0;entryY=0.5;entryDx=0;entryDy=0;" parent="1" source="2QGjMS1GRSRLFprrYfII-1817" target="2QGjMS1GRSRLFprrYfII-1823" edge="1">
          <mxGeometry relative="1" as="geometry">
            <mxPoint x="520" y="615" as="sourcePoint" />
            <mxPoint x="710" y="580" as="targetPoint" />
          </mxGeometry>
        </mxCell>
        <mxCell id="2QGjMS1GRSRLFprrYfII-1857" value="" style="edgeStyle=orthogonalEdgeStyle;rounded=1;orthogonalLoop=1;jettySize=auto;html=1;strokeColor=default;align=center;verticalAlign=middle;fontFamily=Helvetica;fontSize=11;fontColor=default;labelBackgroundColor=default;endArrow=none;endFill=0;" parent="1" source="2QGjMS1GRSRLFprrYfII-1823" target="2QGjMS1GRSRLFprrYfII-1856" edge="1">
          <mxGeometry relative="1" as="geometry" />
        </mxCell>
        <mxCell id="Xi3BKGTLGpxrQG3oyrhZ-1750" style="edgeStyle=orthogonalEdgeStyle;rounded=1;orthogonalLoop=1;jettySize=auto;html=1;entryX=0;entryY=0.5;entryDx=0;entryDy=0;strokeColor=default;align=center;verticalAlign=middle;fontFamily=Helvetica;fontSize=11;fontColor=default;labelBackgroundColor=default;endArrow=none;endFill=0;exitX=1;exitY=0.5;exitDx=0;exitDy=0;" parent="1" source="2QGjMS1GRSRLFprrYfII-1817" target="2QGjMS1GRSRLFprrYfII-1862" edge="1">
          <mxGeometry relative="1" as="geometry" />
        </mxCell>
        <mxCell id="2QGjMS1GRSRLFprrYfII-1823" value="画像をテキストに変換する" style="whiteSpace=wrap;html=1;fontSize=11;fillColor=#647687;strokeColor=#314354;fontColor=#ffffff;rounded=1;shadow=0;labelBackgroundColor=none;strokeWidth=1;fontStyle=0;spacing=5;arcSize=7;align=left;" parent="1" vertex="1">
          <mxGeometry x="600" y="390" width="200" height="30" as="geometry" />
        </mxCell>
        <mxCell id="2QGjMS1GRSRLFprrYfII-1889" style="edgeStyle=orthogonalEdgeStyle;rounded=1;orthogonalLoop=1;jettySize=auto;html=1;entryX=0;entryY=0.5;entryDx=0;entryDy=0;strokeColor=default;align=center;verticalAlign=middle;fontFamily=Helvetica;fontSize=11;fontColor=default;labelBackgroundColor=default;endArrow=none;endFill=0;" parent="1" source="2QGjMS1GRSRLFprrYfII-1834" target="2QGjMS1GRSRLFprrYfII-1888" edge="1">
          <mxGeometry relative="1" as="geometry" />
        </mxCell>
        <mxCell id="2QGjMS1GRSRLFprrYfII-1834" value="テキストを編集する" style="whiteSpace=wrap;html=1;fontSize=11;fillColor=#647687;strokeColor=#314354;fontColor=#ffffff;rounded=1;shadow=0;labelBackgroundColor=none;strokeWidth=1;fontStyle=0;spacing=5;arcSize=7;align=left;" parent="1" vertex="1">
          <mxGeometry x="600" y="589.5" width="200" height="30" as="geometry" />
        </mxCell>
        <mxCell id="2QGjMS1GRSRLFprrYfII-1839" value="" style="edgeStyle=orthogonalEdgeStyle;rounded=1;orthogonalLoop=1;jettySize=auto;html=1;strokeColor=default;align=center;verticalAlign=middle;fontFamily=Helvetica;fontSize=11;fontColor=default;labelBackgroundColor=default;endArrow=none;endFill=0;entryX=0;entryY=0.5;entryDx=0;entryDy=0;" parent="1" source="2QGjMS1GRSRLFprrYfII-1835" target="2QGjMS1GRSRLFprrYfII-1838" edge="1">
          <mxGeometry relative="1" as="geometry" />
        </mxCell>
        <mxCell id="2QGjMS1GRSRLFprrYfII-1845" style="edgeStyle=orthogonalEdgeStyle;rounded=1;orthogonalLoop=1;jettySize=auto;html=1;entryX=0;entryY=0.5;entryDx=0;entryDy=0;strokeColor=default;align=center;verticalAlign=middle;fontFamily=Helvetica;fontSize=11;fontColor=default;labelBackgroundColor=default;endArrow=none;endFill=0;" parent="1" source="2QGjMS1GRSRLFprrYfII-1835" target="2QGjMS1GRSRLFprrYfII-1843" edge="1">
          <mxGeometry relative="1" as="geometry" />
        </mxCell>
        <mxCell id="2QGjMS1GRSRLFprrYfII-1835" value="&lt;font style=&quot;font-size: 14px;&quot;&gt;コンセプト（目的）&lt;/font&gt;" style="whiteSpace=wrap;html=1;fontSize=16;fillColor=#2F5B7C;strokeColor=none;fontColor=#FFFFFF;rounded=1;shadow=0;labelBackgroundColor=none;strokeWidth=3;fontStyle=0;spacing=5;arcSize=7;align=left;" parent="1" vertex="1">
          <mxGeometry x="280" y="40" width="160" height="40" as="geometry" />
        </mxCell>
        <mxCell id="2QGjMS1GRSRLFprrYfII-1836" style="edgeStyle=orthogonalEdgeStyle;rounded=1;orthogonalLoop=1;jettySize=auto;html=1;strokeColor=default;align=center;verticalAlign=middle;fontFamily=Helvetica;fontSize=11;fontColor=default;labelBackgroundColor=default;endArrow=none;endFill=0;entryX=0;entryY=0.5;entryDx=0;entryDy=0;" parent="1" source="1749" target="2QGjMS1GRSRLFprrYfII-1835" edge="1">
          <mxGeometry relative="1" as="geometry" />
        </mxCell>
        <mxCell id="2QGjMS1GRSRLFprrYfII-1838" value="手書きのリストを撮影し、簡単にテキストデータのチェックリストを生成する便利アプリ" style="whiteSpace=wrap;html=1;fontSize=11;fillColor=#647687;strokeColor=#314354;fontColor=#ffffff;rounded=1;shadow=0;labelBackgroundColor=none;strokeWidth=1;fontStyle=0;spacing=5;arcSize=7;align=left;verticalAlign=middle;fontFamily=Helvetica;" parent="1" vertex="1">
          <mxGeometry x="480" y="10" width="460" height="40" as="geometry" />
        </mxCell>
        <mxCell id="2QGjMS1GRSRLFprrYfII-1851" style="edgeStyle=orthogonalEdgeStyle;rounded=1;orthogonalLoop=1;jettySize=auto;html=1;entryX=0;entryY=0.5;entryDx=0;entryDy=0;strokeColor=default;align=center;verticalAlign=middle;fontFamily=Helvetica;fontSize=11;fontColor=default;labelBackgroundColor=default;endArrow=none;endFill=0;" parent="1" source="2QGjMS1GRSRLFprrYfII-1842" target="2QGjMS1GRSRLFprrYfII-1848" edge="1">
          <mxGeometry relative="1" as="geometry" />
        </mxCell>
        <mxCell id="2QGjMS1GRSRLFprrYfII-1852" style="edgeStyle=orthogonalEdgeStyle;rounded=1;orthogonalLoop=1;jettySize=auto;html=1;entryX=0;entryY=0.5;entryDx=0;entryDy=0;strokeColor=default;align=center;verticalAlign=middle;fontFamily=Helvetica;fontSize=11;fontColor=default;labelBackgroundColor=default;endArrow=none;endFill=0;" parent="1" source="2QGjMS1GRSRLFprrYfII-1842" target="2QGjMS1GRSRLFprrYfII-1849" edge="1">
          <mxGeometry relative="1" as="geometry" />
        </mxCell>
        <mxCell id="2QGjMS1GRSRLFprrYfII-1853" style="edgeStyle=orthogonalEdgeStyle;rounded=1;orthogonalLoop=1;jettySize=auto;html=1;entryX=0;entryY=0.5;entryDx=0;entryDy=0;strokeColor=default;align=center;verticalAlign=middle;fontFamily=Helvetica;fontSize=11;fontColor=default;labelBackgroundColor=default;endArrow=none;endFill=0;" parent="1" source="2QGjMS1GRSRLFprrYfII-1842" target="2QGjMS1GRSRLFprrYfII-1850" edge="1">
          <mxGeometry relative="1" as="geometry" />
        </mxCell>
        <mxCell id="2QGjMS1GRSRLFprrYfII-1866" style="edgeStyle=orthogonalEdgeStyle;rounded=1;orthogonalLoop=1;jettySize=auto;html=1;entryX=0;entryY=0.5;entryDx=0;entryDy=0;strokeColor=default;align=center;verticalAlign=middle;fontFamily=Helvetica;fontSize=11;fontColor=default;labelBackgroundColor=default;endArrow=none;endFill=0;" parent="1" source="2QGjMS1GRSRLFprrYfII-1842" target="2QGjMS1GRSRLFprrYfII-1865" edge="1">
          <mxGeometry relative="1" as="geometry" />
        </mxCell>
        <mxCell id="2QGjMS1GRSRLFprrYfII-1842" value="環境" style="whiteSpace=wrap;html=1;fontSize=14;fillColor=#2F5B7C;strokeColor=none;fontColor=#FFFFFF;rounded=1;shadow=0;labelBackgroundColor=none;strokeWidth=3;fontStyle=0;spacing=5;arcSize=7;align=left;" parent="1" vertex="1">
          <mxGeometry x="280" y="160" width="160" height="40" as="geometry" />
        </mxCell>
        <mxCell id="2QGjMS1GRSRLFprrYfII-1843" value="機能は最小限に絞り、軽量であり、軽快な使用感であることを優先する" style="whiteSpace=wrap;html=1;fontSize=11;fillColor=#647687;strokeColor=#314354;fontColor=#ffffff;rounded=1;shadow=0;labelBackgroundColor=none;strokeWidth=1;fontStyle=0;spacing=5;arcSize=7;align=left;verticalAlign=middle;fontFamily=Helvetica;" parent="1" vertex="1">
          <mxGeometry x="480" y="70" width="460" height="40" as="geometry" />
        </mxCell>
        <mxCell id="2QGjMS1GRSRLFprrYfII-1848" value="Visual Studio2022 Community" style="whiteSpace=wrap;html=1;fontSize=11;fillColor=#647687;strokeColor=#314354;fontColor=#ffffff;rounded=1;shadow=0;labelBackgroundColor=none;strokeWidth=1;fontStyle=0;spacing=5;arcSize=7;align=left;verticalAlign=middle;fontFamily=Helvetica;" parent="1" vertex="1">
          <mxGeometry x="480" y="140" width="170" height="30" as="geometry" />
        </mxCell>
        <mxCell id="2QGjMS1GRSRLFprrYfII-1849" value=".NET MAUI 8" style="whiteSpace=wrap;html=1;fontSize=11;fillColor=#647687;strokeColor=#314354;fontColor=#ffffff;rounded=1;shadow=0;labelBackgroundColor=none;strokeWidth=1;fontStyle=0;spacing=5;arcSize=7;align=left;verticalAlign=middle;fontFamily=Helvetica;" parent="1" vertex="1">
          <mxGeometry x="480" y="190" width="170" height="30" as="geometry" />
        </mxCell>
        <mxCell id="2QGjMS1GRSRLFprrYfII-1850" value="C#" style="whiteSpace=wrap;html=1;fontSize=11;fillColor=#647687;strokeColor=#314354;fontColor=#ffffff;rounded=1;shadow=0;labelBackgroundColor=none;strokeWidth=1;fontStyle=0;spacing=5;arcSize=7;align=left;verticalAlign=middle;fontFamily=Helvetica;" parent="1" vertex="1">
          <mxGeometry x="480" y="240" width="170" height="30" as="geometry" />
        </mxCell>
        <UserObject label="OCR: Azure AI Vision v3.2 GA Read" link="https://learn.microsoft.com/ja-jp/azure/ai-services/computer-vision/quickstarts-sdk/client-library?tabs=windows%2Cvisual-studio&amp;pivots=programming-language-csharp" id="2QGjMS1GRSRLFprrYfII-1856">
          <mxCell style="whiteSpace=wrap;html=1;fontSize=11;fillColor=#647687;strokeColor=#314354;fontColor=#ffffff;rounded=1;shadow=0;labelBackgroundColor=none;strokeWidth=1;fontStyle=0;spacing=5;arcSize=7;align=left;" parent="1" vertex="1">
            <mxGeometry x="880" y="390" width="200" height="30" as="geometry" />
          </mxCell>
        </UserObject>
        <mxCell id="2QGjMS1GRSRLFprrYfII-1859" style="edgeStyle=orthogonalEdgeStyle;rounded=1;orthogonalLoop=1;jettySize=auto;html=1;entryX=0;entryY=0.5;entryDx=0;entryDy=0;strokeColor=default;align=center;verticalAlign=middle;fontFamily=Helvetica;fontSize=11;fontColor=default;labelBackgroundColor=default;endArrow=none;endFill=0;" parent="1" source="2QGjMS1GRSRLFprrYfII-1858" target="2QGjMS1GRSRLFprrYfII-1817" edge="1">
          <mxGeometry relative="1" as="geometry" />
        </mxCell>
        <mxCell id="2QGjMS1GRSRLFprrYfII-1861" style="edgeStyle=orthogonalEdgeStyle;rounded=1;orthogonalLoop=1;jettySize=auto;html=1;entryX=0;entryY=0.5;entryDx=0;entryDy=0;strokeColor=default;align=center;verticalAlign=middle;fontFamily=Helvetica;fontSize=11;fontColor=default;labelBackgroundColor=default;endArrow=none;endFill=0;" parent="1" source="2QGjMS1GRSRLFprrYfII-1858" target="2QGjMS1GRSRLFprrYfII-1860" edge="1">
          <mxGeometry relative="1" as="geometry" />
        </mxCell>
        <mxCell id="2QGjMS1GRSRLFprrYfII-1858" value="仕様" style="whiteSpace=wrap;html=1;fontSize=14;fillColor=#2F5B7C;strokeColor=none;fontColor=#FFFFFF;rounded=1;shadow=0;labelBackgroundColor=none;strokeWidth=3;fontStyle=0;spacing=5;arcSize=7;align=left;" parent="1" vertex="1">
          <mxGeometry x="280" y="560" width="80" height="40" as="geometry" />
        </mxCell>
        <mxCell id="2QGjMS1GRSRLFprrYfII-1871" style="edgeStyle=orthogonalEdgeStyle;rounded=1;orthogonalLoop=1;jettySize=auto;html=1;entryX=0;entryY=0.5;entryDx=0;entryDy=0;strokeColor=default;align=center;verticalAlign=middle;fontFamily=Helvetica;fontSize=11;fontColor=default;labelBackgroundColor=default;endArrow=none;endFill=0;exitX=1;exitY=0.5;exitDx=0;exitDy=0;" parent="1" source="2QGjMS1GRSRLFprrYfII-1817" target="2QGjMS1GRSRLFprrYfII-1870" edge="1">
          <mxGeometry relative="1" as="geometry" />
        </mxCell>
        <mxCell id="KCyBOEaufs3qYDoTfXYa-1750" style="edgeStyle=orthogonalEdgeStyle;rounded=0;orthogonalLoop=1;jettySize=auto;html=1;entryX=0;entryY=0.5;entryDx=0;entryDy=0;" parent="1" source="2QGjMS1GRSRLFprrYfII-1860" target="KCyBOEaufs3qYDoTfXYa-1749" edge="1">
          <mxGeometry relative="1" as="geometry" />
        </mxCell>
        <mxCell id="2QGjMS1GRSRLFprrYfII-1860" value="設定" style="whiteSpace=wrap;html=1;fontSize=14;fillColor=#2F5B7C;strokeColor=none;fontColor=#FFFFFF;rounded=1;shadow=0;labelBackgroundColor=none;strokeWidth=3;fontStyle=0;spacing=5;arcSize=7;align=center;" parent="1" vertex="1">
          <mxGeometry x="440" y="900" width="60" height="40" as="geometry" />
        </mxCell>
        <mxCell id="2QGjMS1GRSRLFprrYfII-1862" value="選択: 先頭の・(中黒)を削除する" style="whiteSpace=wrap;html=1;fontSize=11;fillColor=#647687;strokeColor=#314354;fontColor=#ffffff;rounded=1;shadow=0;labelBackgroundColor=none;strokeWidth=1;fontStyle=0;spacing=5;arcSize=7;align=left;" parent="1" vertex="1">
          <mxGeometry x="600" y="440" width="200" height="30" as="geometry" />
        </mxCell>
        <UserObject label="IMediaPickerを使用" id="2QGjMS1GRSRLFprrYfII-1864">
          <mxCell style="whiteSpace=wrap;html=1;fontSize=11;fillColor=#647687;strokeColor=#314354;fontColor=#ffffff;rounded=1;shadow=0;labelBackgroundColor=none;strokeWidth=1;fontStyle=0;spacing=5;arcSize=7;align=left;" parent="1" vertex="1">
            <mxGeometry x="880" y="290" width="200" height="30" as="geometry" />
          </mxCell>
        </UserObject>
        <mxCell id="2QGjMS1GRSRLFprrYfII-1865" value="Android API 34" style="whiteSpace=wrap;html=1;fontSize=11;fillColor=#647687;strokeColor=#314354;fontColor=#ffffff;rounded=1;shadow=0;labelBackgroundColor=none;strokeWidth=1;fontStyle=0;spacing=5;arcSize=7;align=left;verticalAlign=middle;fontFamily=Helvetica;" parent="1" vertex="1">
          <mxGeometry x="480" y="290" width="170" height="30" as="geometry" />
        </mxCell>
        <UserObject label="&lt;code&gt;&lt;font face=&quot;Helvetica&quot;&gt;許可:&amp;nbsp;&lt;/font&gt;&lt;code&gt;CAMERA&amp;nbsp;&lt;/code&gt;READ_MEDIA_IMAGES&lt;/code&gt;" id="2QGjMS1GRSRLFprrYfII-1868">
          <mxCell style="whiteSpace=wrap;html=1;fontSize=11;fillColor=#647687;strokeColor=#314354;fontColor=#ffffff;rounded=1;shadow=0;labelBackgroundColor=none;strokeWidth=1;fontStyle=0;spacing=5;arcSize=7;align=left;" parent="1" vertex="1">
            <mxGeometry x="880" y="340" width="200" height="30" as="geometry" />
          </mxCell>
        </UserObject>
        <UserObject label="選択: 一列または二列で表示" link="https://learn.microsoft.com/ja-jp/dotnet/maui/user-interface/controls/collectionview/layout?view=net-maui-8.0#vertical-grid" id="2QGjMS1GRSRLFprrYfII-1870">
          <mxCell style="whiteSpace=wrap;html=1;fontSize=11;fillColor=#647687;strokeColor=#314354;fontColor=#ffffff;rounded=1;shadow=0;labelBackgroundColor=none;strokeWidth=1;fontStyle=0;spacing=5;arcSize=7;align=left;" parent="1" vertex="1">
            <mxGeometry x="600" y="840" width="200" height="30" as="geometry" />
          </mxCell>
        </UserObject>
        <UserObject label="CollectionView" id="2QGjMS1GRSRLFprrYfII-1872">
          <mxCell style="whiteSpace=wrap;html=1;fontSize=11;fillColor=#647687;strokeColor=#314354;fontColor=#ffffff;rounded=1;shadow=0;labelBackgroundColor=none;strokeWidth=1;fontStyle=0;spacing=5;arcSize=7;align=left;" parent="1" vertex="1">
            <mxGeometry x="880" y="489.5" width="200" height="30" as="geometry" />
          </mxCell>
        </UserObject>
        <UserObject label="VisualState.Setters" link="https://learn.microsoft.com/ja-jp/dotnet/maui/user-interface/controls/collectionview/selection?view=net-maui-8.0#change-selected-item-color" id="2QGjMS1GRSRLFprrYfII-1874">
          <mxCell style="whiteSpace=wrap;html=1;fontSize=11;fillColor=#647687;strokeColor=#314354;fontColor=#ffffff;rounded=1;shadow=0;labelBackgroundColor=none;strokeWidth=1;fontStyle=0;spacing=5;arcSize=7;align=left;" parent="1" vertex="1">
            <mxGeometry x="880" y="538.5" width="200" height="30" as="geometry" />
          </mxCell>
        </UserObject>
        <UserObject label="削除＆新規作成で対応" id="2QGjMS1GRSRLFprrYfII-1888">
          <mxCell style="whiteSpace=wrap;html=1;fontSize=11;fillColor=#647687;strokeColor=#314354;fontColor=#ffffff;rounded=1;shadow=0;labelBackgroundColor=none;strokeWidth=1;fontStyle=0;spacing=5;arcSize=7;align=left;" parent="1" vertex="1">
            <mxGeometry x="880" y="590" width="200" height="30" as="geometry" />
          </mxCell>
        </UserObject>
        <mxCell id="2QGjMS1GRSRLFprrYfII-1917" style="edgeStyle=orthogonalEdgeStyle;rounded=1;orthogonalLoop=1;jettySize=auto;html=1;entryX=0;entryY=0.5;entryDx=0;entryDy=0;strokeColor=default;align=center;verticalAlign=middle;fontFamily=Helvetica;fontSize=11;fontColor=default;labelBackgroundColor=default;endArrow=none;endFill=0;" parent="1" source="2QGjMS1GRSRLFprrYfII-1890" target="2QGjMS1GRSRLFprrYfII-1916" edge="1">
          <mxGeometry relative="1" as="geometry" />
        </mxCell>
        <mxCell id="2QGjMS1GRSRLFprrYfII-1890" value="アイテムの位置を入れ替える" style="whiteSpace=wrap;html=1;fontSize=11;fillColor=#647687;strokeColor=#314354;fontColor=#ffffff;rounded=1;shadow=0;labelBackgroundColor=none;strokeWidth=1;fontStyle=0;spacing=5;arcSize=7;align=left;" parent="1" vertex="1">
          <mxGeometry x="600" y="690" width="200" height="30" as="geometry" />
        </mxCell>
        <mxCell id="2QGjMS1GRSRLFprrYfII-1918" style="edgeStyle=orthogonalEdgeStyle;rounded=1;orthogonalLoop=1;jettySize=auto;html=1;entryX=0;entryY=0.5;entryDx=0;entryDy=0;strokeColor=default;align=center;verticalAlign=middle;fontFamily=Helvetica;fontSize=11;fontColor=default;labelBackgroundColor=default;endArrow=none;endFill=0;" parent="1" source="2QGjMS1GRSRLFprrYfII-1892" target="2QGjMS1GRSRLFprrYfII-1915" edge="1">
          <mxGeometry relative="1" as="geometry" />
        </mxCell>
        <mxCell id="2QGjMS1GRSRLFprrYfII-1892" value="アイテムを追加する" style="whiteSpace=wrap;html=1;fontSize=11;fillColor=#647687;strokeColor=#314354;fontColor=#ffffff;rounded=1;shadow=0;labelBackgroundColor=none;strokeWidth=1;fontStyle=0;spacing=5;arcSize=7;align=left;" parent="1" vertex="1">
          <mxGeometry x="600" y="740" width="200" height="30" as="geometry" />
        </mxCell>
        <mxCell id="2QGjMS1GRSRLFprrYfII-1897" style="edgeStyle=orthogonalEdgeStyle;rounded=1;orthogonalLoop=1;jettySize=auto;html=1;entryX=0;entryY=0.5;entryDx=0;entryDy=0;strokeColor=default;align=center;verticalAlign=middle;fontFamily=Helvetica;fontSize=11;fontColor=default;labelBackgroundColor=default;endArrow=none;endFill=0;" parent="1" source="2QGjMS1GRSRLFprrYfII-1894" target="2QGjMS1GRSRLFprrYfII-1896" edge="1">
          <mxGeometry relative="1" as="geometry" />
        </mxCell>
        <mxCell id="2QGjMS1GRSRLFprrYfII-1894" value="アイテムを削除する" style="whiteSpace=wrap;html=1;fontSize=11;fillColor=#647687;strokeColor=#314354;fontColor=#ffffff;rounded=1;shadow=0;labelBackgroundColor=none;strokeWidth=1;fontStyle=0;spacing=5;arcSize=7;align=left;" parent="1" vertex="1">
          <mxGeometry x="600" y="640" width="200" height="30" as="geometry" />
        </mxCell>
        <UserObject label="アイテムの右端に削除アイコン配置" id="2QGjMS1GRSRLFprrYfII-1896">
          <mxCell style="whiteSpace=wrap;html=1;fontSize=11;fillColor=#647687;strokeColor=#314354;fontColor=#ffffff;rounded=1;shadow=0;labelBackgroundColor=none;strokeWidth=1;fontStyle=0;spacing=5;arcSize=7;align=left;" parent="1" vertex="1">
            <mxGeometry x="880" y="640" width="200" height="30" as="geometry" />
          </mxCell>
        </UserObject>
        <UserObject label="Editorで追加" id="2QGjMS1GRSRLFprrYfII-1915">
          <mxCell style="whiteSpace=wrap;html=1;fontSize=11;fillColor=#647687;strokeColor=#314354;fontColor=#ffffff;rounded=1;shadow=0;labelBackgroundColor=none;strokeWidth=1;fontStyle=0;spacing=5;arcSize=7;align=left;" parent="1" vertex="1">
            <mxGeometry x="880" y="740" width="200" height="30" as="geometry" />
          </mxCell>
        </UserObject>
        <UserObject label="drag and drop gesture" link="https://learnmobiledevelopment.com/index.php/2023/01/14/drag-and-drop-gesture-to-collectionview/" id="2QGjMS1GRSRLFprrYfII-1916">
          <mxCell style="whiteSpace=wrap;html=1;fontSize=11;fillColor=#647687;strokeColor=#314354;fontColor=#ffffff;rounded=1;shadow=0;labelBackgroundColor=none;strokeWidth=1;fontStyle=0;spacing=5;arcSize=7;align=left;" parent="1" vertex="1">
            <mxGeometry x="880" y="690" width="200" height="30" as="geometry" />
          </mxCell>
        </UserObject>
        <mxCell id="eihNs3FUf2MRqZwYtpPU-1752" style="edgeStyle=orthogonalEdgeStyle;rounded=0;orthogonalLoop=1;jettySize=auto;html=1;entryX=0;entryY=0.5;entryDx=0;entryDy=0;" parent="1" source="eihNs3FUf2MRqZwYtpPU-1749" target="eihNs3FUf2MRqZwYtpPU-1751" edge="1">
          <mxGeometry relative="1" as="geometry" />
        </mxCell>
        <mxCell id="eihNs3FUf2MRqZwYtpPU-1749" value="ItemsをLocal保存し次回起動時に読込" style="whiteSpace=wrap;html=1;fontSize=11;fillColor=#647687;strokeColor=#314354;fontColor=#ffffff;rounded=1;shadow=0;labelBackgroundColor=none;strokeWidth=1;fontStyle=0;spacing=5;arcSize=7;align=left;" parent="1" vertex="1">
          <mxGeometry x="600" y="790" width="200" height="30" as="geometry" />
        </mxCell>
        <UserObject label="リスト作成時、jsonを作成" link="https://learn.microsoft.com/ja-jp/dotnet/standard/serialization/system-text-json/how-to" id="eihNs3FUf2MRqZwYtpPU-1751">
          <mxCell style="whiteSpace=wrap;html=1;fontSize=11;fillColor=#647687;strokeColor=#314354;fontColor=#ffffff;rounded=1;shadow=0;labelBackgroundColor=none;strokeWidth=1;fontStyle=0;spacing=5;arcSize=7;align=left;" parent="1" vertex="1">
            <mxGeometry x="880" y="790" width="200" height="30" as="geometry" />
          </mxCell>
        </UserObject>
        <UserObject label="LocalStrageにjsonを保存" link="https://qiita.com/kashin777/items/03bcfa6c0f17178911e2" id="eihNs3FUf2MRqZwYtpPU-1753">
          <mxCell style="whiteSpace=wrap;html=1;fontSize=11;fillColor=#647687;strokeColor=#314354;fontColor=#ffffff;rounded=1;shadow=0;labelBackgroundColor=none;strokeWidth=1;fontStyle=0;spacing=5;arcSize=7;align=left;" parent="1" vertex="1">
            <mxGeometry x="880" y="905" width="200" height="30" as="geometry" />
          </mxCell>
        </UserObject>
        <mxCell id="KCyBOEaufs3qYDoTfXYa-1755" style="edgeStyle=orthogonalEdgeStyle;rounded=0;orthogonalLoop=1;jettySize=auto;html=1;" parent="1" source="KCyBOEaufs3qYDoTfXYa-1749" target="eihNs3FUf2MRqZwYtpPU-1753" edge="1">
          <mxGeometry relative="1" as="geometry" />
        </mxCell>
        <mxCell id="KCyBOEaufs3qYDoTfXYa-1756" style="edgeStyle=orthogonalEdgeStyle;rounded=0;orthogonalLoop=1;jettySize=auto;html=1;entryX=0;entryY=0.5;entryDx=0;entryDy=0;" parent="1" source="KCyBOEaufs3qYDoTfXYa-1749" target="KCyBOEaufs3qYDoTfXYa-1754" edge="1">
          <mxGeometry relative="1" as="geometry" />
        </mxCell>
        <UserObject label="前回状態を保存する" link="https://learn.microsoft.com/ja-jp/dotnet/maui/user-interface/controls/collectionview/layout?view=net-maui-8.0#vertical-grid" id="KCyBOEaufs3qYDoTfXYa-1749">
          <mxCell style="whiteSpace=wrap;html=1;fontSize=11;fillColor=#647687;strokeColor=#314354;fontColor=#ffffff;rounded=1;shadow=0;labelBackgroundColor=none;strokeWidth=1;fontStyle=0;spacing=5;arcSize=7;align=left;" parent="1" vertex="1">
            <mxGeometry x="600" y="905" width="200" height="30" as="geometry" />
          </mxCell>
        </UserObject>
        <UserObject label="Preferences" link="https://learn.microsoft.com/ja-jp/dotnet/maui/platform-integration/storage/preferences?view=net-maui-8.0&amp;tabs=android" id="KCyBOEaufs3qYDoTfXYa-1754">
          <mxCell style="whiteSpace=wrap;html=1;fontSize=11;fillColor=#647687;strokeColor=#314354;fontColor=#ffffff;rounded=1;shadow=0;labelBackgroundColor=none;strokeWidth=1;fontStyle=0;spacing=5;arcSize=7;align=left;" parent="1" vertex="1">
            <mxGeometry x="880" y="950" width="200" height="30" as="geometry" />
          </mxCell>
        </UserObject>
      </root>
    </mxGraphModel>
  </diagram>
  <diagram id="KsLdQPLzo_QNJueVbntS" name="カラー">
    <mxGraphModel dx="2208" dy="1634" grid="1" gridSize="10" guides="1" tooltips="1" connect="1" arrows="1" fold="1" page="1" pageScale="1" pageWidth="1654" pageHeight="1169" math="0" shadow="0">
      <root>
        <mxCell id="0" />
        <mxCell id="1" parent="0" />
        <mxCell id="G8K-U4UqCa5ROsSrNeN5-3" value="Tertiary" style="whiteSpace=wrap;html=1;aspect=fixed;strokeColor=none;fontColor=#FFFFFF;fillColor=#748E63;" parent="1" vertex="1">
          <mxGeometry x="160" width="80" height="80" as="geometry" />
        </mxCell>
        <mxCell id="3MkmYU99Fz2WDJ-AbJhi-5" value="Gray600" style="whiteSpace=wrap;html=1;aspect=fixed;strokeColor=none;fontColor=#FFFFFF;fillColor=#404040;" parent="1" vertex="1">
          <mxGeometry x="160" y="80" width="80" height="80" as="geometry" />
        </mxCell>
        <mxCell id="3MkmYU99Fz2WDJ-AbJhi-6" value="&lt;div&gt;Gray300&lt;br&gt;&lt;/div&gt;" style="whiteSpace=wrap;html=1;aspect=fixed;strokeColor=none;fontColor=#FFFFFF;fillColor=#ACACAC;" parent="1" vertex="1">
          <mxGeometry y="80" width="80" height="80" as="geometry" />
        </mxCell>
        <mxCell id="3MkmYU99Fz2WDJ-AbJhi-7" value="Gray500" style="whiteSpace=wrap;html=1;aspect=fixed;strokeColor=none;fontColor=#FFFFFF;fillColor=#6E6E6E;" parent="1" vertex="1">
          <mxGeometry x="80" y="80" width="80" height="80" as="geometry" />
        </mxCell>
        <mxCell id="3MkmYU99Fz2WDJ-AbJhi-8" value="Primary&lt;br&gt;DarkText" style="html=1;aspect=fixed;strokeColor=none;fontColor=#1A1A1A;fillColor=#FFFFFF;whiteSpace=wrap;fontFamily=Verdana;" parent="1" vertex="1">
          <mxGeometry x="240" y="80" width="80" height="80" as="geometry" />
        </mxCell>
        <mxCell id="qiAmX9uu1l7F3_9AtIvx-2" value="背景オブジェクト" parent="0" />
        <mxCell id="G8K-U4UqCa5ROsSrNeN5-1" value="Primary" style="whiteSpace=wrap;html=1;aspect=fixed;strokeColor=none;fontColor=#242424;fillColor=#F9B572;" parent="qiAmX9uu1l7F3_9AtIvx-2" vertex="1">
          <mxGeometry width="80" height="80" as="geometry" />
        </mxCell>
        <mxCell id="G8K-U4UqCa5ROsSrNeN5-7" value="コントロール" parent="0" />
        <mxCell id="G8K-U4UqCa5ROsSrNeN5-2" value="Secondary" style="whiteSpace=wrap;html=1;aspect=fixed;strokeColor=none;fontColor=#242424;fillColor=#99B080;" parent="G8K-U4UqCa5ROsSrNeN5-7" vertex="1">
          <mxGeometry x="80" width="80" height="80" as="geometry" />
        </mxCell>
        <mxCell id="G8K-U4UqCa5ROsSrNeN5-6" value="アイコン" parent="0" />
        <mxCell id="G8K-U4UqCa5ROsSrNeN5-8" value="テキスト" parent="0" />
        <mxCell id="G8K-U4UqCa5ROsSrNeN5-4" value="Primary&lt;br&gt;DarkText" style="html=1;aspect=fixed;strokeColor=none;fontColor=#FFFFFF;fillColor=#312B30;whiteSpace=wrap;fontFamily=Verdana;" parent="G8K-U4UqCa5ROsSrNeN5-8" vertex="1">
          <mxGeometry x="240" width="80" height="80" as="geometry" />
        </mxCell>
      </root>
    </mxGraphModel>
  </diagram>
</mxfile>
